<svg width="152" height="28" viewBox="0 0 152 28" fill="none" xmlns="http://www.w3.org/2000/svg">
<g filter="url(#filter0_d_1_100)">
<path d="M12.242 0.592H15.57L17.676 6.702L19.808 0.592H23.11L19.938 8.99L22.278 14.866L27.504 0.539999H31.404L24.02 19H20.926L17.676 11.252L14.452 19H11.358L4 0.539999H7.848L13.1 14.866L15.388 8.99L12.242 0.592ZM38.227 19.26C37.135 19.26 36.147 19.078 35.263 18.714C34.379 18.3327 33.625 17.8213 33.001 17.18C32.377 16.5213 31.8916 15.776 31.545 14.944C31.2156 14.0947 31.051 13.202 31.051 12.266C31.051 10.966 31.337 9.77867 31.909 8.704C32.4983 7.62933 33.3303 6.77133 34.405 6.13C35.497 5.47133 36.7796 5.142 38.253 5.142C39.7436 5.142 41.0176 5.47133 42.075 6.13C43.1323 6.77133 43.9383 7.62933 44.493 8.704C45.065 9.76133 45.351 10.9053 45.351 12.136C45.351 12.344 45.3423 12.5607 45.325 12.786C45.3076 12.994 45.2903 13.1673 45.273 13.306H34.743C34.8123 13.9993 35.0116 14.606 35.341 15.126C35.6876 15.646 36.121 16.0447 36.641 16.322C37.1783 16.582 37.7503 16.712 38.357 16.712C39.0503 16.712 39.7003 16.5473 40.307 16.218C40.931 15.8713 41.3556 15.4207 41.581 14.866L44.571 15.698C44.2416 16.3913 43.765 17.0067 43.141 17.544C42.5343 18.0813 41.815 18.506 40.983 18.818C40.151 19.1127 39.2323 19.26 38.227 19.26ZM34.665 11.096H41.789C41.7196 10.4027 41.5203 9.80467 41.191 9.302C40.879 8.782 40.463 8.38333 39.943 8.106C39.423 7.81133 38.8423 7.664 38.201 7.664C37.577 7.664 37.005 7.81133 36.485 8.106C35.9823 8.38333 35.5663 8.782 35.237 9.302C34.925 9.80467 34.7343 10.4027 34.665 11.096ZM56.0014 19.26C54.9614 19.26 54.0341 19.026 53.2194 18.558C52.4048 18.09 51.7634 17.4487 51.2954 16.634V19H48.2534V0.0199995H51.7374V7.768C52.2228 6.95333 52.8554 6.312 53.6354 5.844C54.4328 5.376 55.3601 5.142 56.4174 5.142C57.3014 5.142 58.1074 5.33267 58.8354 5.714C59.5634 6.078 60.1874 6.58933 60.7074 7.248C61.2448 7.90667 61.6521 8.66067 61.9294 9.51C62.2241 10.3593 62.3714 11.2693 62.3714 12.24C62.3714 13.2107 62.2068 14.1207 61.8774 14.97C61.5654 15.8193 61.1234 16.5733 60.5514 17.232C59.9794 17.8733 59.3034 18.376 58.5234 18.74C57.7608 19.0867 56.9201 19.26 56.0014 19.26ZM55.0394 16.296C55.5941 16.296 56.0968 16.192 56.5474 15.984C57.0154 15.7587 57.4141 15.464 57.7434 15.1C58.0901 14.736 58.3501 14.3113 58.5234 13.826C58.7141 13.3233 58.8094 12.8033 58.8094 12.266C58.8094 11.5207 58.6534 10.836 58.3414 10.212C58.0468 9.57067 57.6308 9.05933 57.0934 8.678C56.5734 8.29667 55.9581 8.106 55.2474 8.106C54.7448 8.106 54.2594 8.22733 53.7914 8.47C53.3408 8.69533 52.9334 9.00733 52.5694 9.406C52.2228 9.80467 51.9454 10.2553 51.7374 10.758V14.008C51.8414 14.3547 52.0061 14.6667 52.2314 14.944C52.4741 15.2213 52.7514 15.464 53.0634 15.672C53.3754 15.8627 53.6961 16.0187 54.0254 16.14C54.3721 16.244 54.7101 16.296 55.0394 16.296Z" fill="#2196F3"/>
<path d="M76.8479 5.376C76.7266 5.25467 76.5013 5.09 76.1719 4.882C75.8599 4.674 75.4699 4.47467 75.0019 4.284C74.5513 4.09333 74.0573 3.92867 73.5199 3.79C72.9826 3.634 72.4366 3.556 71.8819 3.556C70.9113 3.556 70.1746 3.738 69.6719 4.102C69.1866 4.466 68.9439 4.97733 68.9439 5.636C68.9439 6.13867 69.0999 6.53733 69.4119 6.832C69.7239 7.12667 70.1919 7.378 70.8159 7.586C71.4399 7.794 72.2199 8.01933 73.1559 8.262C74.3693 8.55667 75.4179 8.92067 76.3019 9.354C77.2033 9.77 77.8879 10.3247 78.3559 11.018C78.8413 11.694 79.0839 12.5953 79.0839 13.722C79.0839 14.71 78.9019 15.5593 78.5379 16.27C78.1739 16.9633 77.6713 17.5267 77.0299 17.96C76.3886 18.3933 75.6606 18.714 74.8459 18.922C74.0313 19.1127 73.1646 19.208 72.2459 19.208C71.3273 19.208 70.4086 19.1127 69.4899 18.922C68.5713 18.7313 67.6873 18.4627 66.8379 18.116C65.9886 17.752 65.2086 17.3187 64.4979 16.816L66.0839 13.722C66.2399 13.878 66.5173 14.086 66.9159 14.346C67.3146 14.5887 67.7999 14.84 68.3719 15.1C68.9439 15.3427 69.5679 15.5507 70.2439 15.724C70.9199 15.8973 71.6046 15.984 72.2979 15.984C73.2686 15.984 74.0053 15.8193 74.5079 15.49C75.0106 15.1607 75.2619 14.6927 75.2619 14.086C75.2619 13.5313 75.0626 13.098 74.6639 12.786C74.2653 12.474 73.7106 12.2053 72.9999 11.98C72.2893 11.7373 71.4486 11.4773 70.4779 11.2C69.3166 10.8707 68.3459 10.5067 67.5659 10.108C66.7859 9.692 66.2053 9.172 65.8239 8.548C65.4426 7.924 65.2519 7.144 65.2519 6.208C65.2519 4.94267 65.5466 3.88533 66.1359 3.036C66.7426 2.16933 67.5573 1.51933 68.5799 1.086C69.6026 0.635333 70.7379 0.409999 71.9859 0.409999C72.8526 0.409999 73.6673 0.505332 74.4299 0.695999C75.2099 0.886666 75.9379 1.138 76.6139 1.45C77.2899 1.762 77.8966 2.1 78.4339 2.464L76.8479 5.376ZM90.0966 18.298C89.8019 18.4193 89.4466 18.558 89.0306 18.714C88.6146 18.87 88.1639 18.9913 87.6786 19.078C87.2106 19.182 86.7339 19.234 86.2486 19.234C85.6072 19.234 85.0179 19.1213 84.4806 18.896C83.9432 18.6707 83.5099 18.3153 83.1806 17.83C82.8686 17.3273 82.7126 16.6773 82.7126 15.88V8.054H80.9186V5.376H82.7126V0.956H86.1966V5.376H89.0566V8.054H86.1966V14.71C86.2139 15.178 86.3439 15.516 86.5866 15.724C86.8292 15.932 87.1326 16.036 87.4966 16.036C87.8606 16.036 88.2159 15.9753 88.5626 15.854C88.9092 15.7327 89.1866 15.6287 89.3946 15.542L90.0966 18.298ZM92.5611 13.904V5.376H96.0451V13.15C96.0451 14.19 96.2357 14.9787 96.6171 15.516C96.9984 16.036 97.5617 16.296 98.3071 16.296C98.7577 16.296 99.1997 16.2093 99.6331 16.036C100.084 15.8453 100.491 15.568 100.855 15.204C101.236 14.84 101.557 14.3807 101.817 13.826V5.376H105.301V15.1C105.301 15.464 105.362 15.724 105.483 15.88C105.622 16.036 105.838 16.1313 106.133 16.166V19C105.786 19.052 105.492 19.0867 105.249 19.104C105.024 19.1387 104.816 19.156 104.625 19.156C104.001 19.156 103.49 19.0173 103.091 18.74C102.71 18.4453 102.484 18.0467 102.415 17.544L102.337 16.452C101.73 17.3707 100.95 18.0727 99.9971 18.558C99.0437 19.026 97.9951 19.26 96.8511 19.26C95.4471 19.26 94.3811 18.8093 93.6531 17.908C92.9251 16.9893 92.5611 15.6547 92.5611 13.904ZM108.711 12.188C108.711 10.8707 108.971 9.68333 109.491 8.626C110.011 7.55133 110.731 6.702 111.649 6.078C112.568 5.454 113.617 5.142 114.795 5.142C115.801 5.142 116.702 5.39333 117.499 5.896C118.314 6.38133 118.947 7.00533 119.397 7.768V0.0199995H122.881V15.1C122.881 15.464 122.942 15.724 123.063 15.88C123.185 16.036 123.393 16.1313 123.687 16.166V19C123.081 19.1213 122.587 19.182 122.205 19.182C121.581 19.182 121.061 19.026 120.645 18.714C120.247 18.402 120.021 17.9947 119.969 17.492L119.917 16.634C119.415 17.4833 118.73 18.1333 117.863 18.584C117.014 19.0347 116.121 19.26 115.185 19.26C114.249 19.26 113.383 19.078 112.585 18.714C111.805 18.35 111.121 17.8473 110.531 17.206C109.959 16.5647 109.509 15.8193 109.179 14.97C108.867 14.1033 108.711 13.176 108.711 12.188ZM119.397 14.008V10.758C119.224 10.2553 118.947 9.80467 118.565 9.406C118.184 9.00733 117.759 8.69533 117.291 8.47C116.823 8.22733 116.355 8.106 115.887 8.106C115.35 8.106 114.865 8.21867 114.431 8.444C113.998 8.66933 113.617 8.97267 113.287 9.354C112.975 9.73533 112.733 10.1773 112.559 10.68C112.403 11.1827 112.325 11.7113 112.325 12.266C112.325 12.8207 112.412 13.3493 112.585 13.852C112.776 14.3373 113.045 14.762 113.391 15.126C113.738 15.49 114.137 15.776 114.587 15.984C115.055 16.192 115.558 16.296 116.095 16.296C116.425 16.296 116.754 16.244 117.083 16.14C117.43 16.0187 117.751 15.8627 118.045 15.672C118.357 15.464 118.626 15.2213 118.851 14.944C119.094 14.6493 119.276 14.3373 119.397 14.008ZM127.081 19V5.376H130.565V19H127.081ZM127.081 3.478V0.0199995H130.565V3.478H127.081ZM140.78 19.26C139.671 19.26 138.674 19.078 137.79 18.714C136.906 18.3327 136.152 17.8127 135.528 17.154C134.921 16.4953 134.453 15.7413 134.124 14.892C133.795 14.0427 133.63 13.15 133.63 12.214C133.63 11.2607 133.795 10.3593 134.124 9.51C134.453 8.66067 134.921 7.90667 135.528 7.248C136.152 6.58933 136.906 6.078 137.79 5.714C138.674 5.33267 139.671 5.142 140.78 5.142C141.889 5.142 142.877 5.33267 143.744 5.714C144.628 6.078 145.382 6.58933 146.006 7.248C146.63 7.90667 147.098 8.66067 147.41 9.51C147.739 10.3593 147.904 11.2607 147.904 12.214C147.904 13.15 147.739 14.0427 147.41 14.892C147.098 15.7413 146.63 16.4953 146.006 17.154C145.399 17.8127 144.654 18.3327 143.77 18.714C142.886 19.078 141.889 19.26 140.78 19.26ZM137.218 12.214C137.218 13.0113 137.374 13.722 137.686 14.346C137.998 14.9527 138.423 15.4293 138.96 15.776C139.497 16.1227 140.104 16.296 140.78 16.296C141.439 16.296 142.037 16.1227 142.574 15.776C143.111 15.412 143.536 14.9267 143.848 14.32C144.177 13.696 144.342 12.9853 144.342 12.188C144.342 11.408 144.177 10.706 143.848 10.082C143.536 9.458 143.111 8.97267 142.574 8.626C142.037 8.27933 141.439 8.106 140.78 8.106C140.104 8.106 139.497 8.288 138.96 8.652C138.423 8.99867 137.998 9.484 137.686 10.108C137.374 10.7147 137.218 11.4167 137.218 12.214Z" fill="black"/>
</g>
<defs>
<filter id="filter0_d_1_100" x="0" y="0.0200195" width="151.904" height="27.24" filterUnits="userSpaceOnUse" color-interpolation-filters="sRGB">
<feFlood flood-opacity="0" result="BackgroundImageFix"/>
<feColorMatrix in="SourceAlpha" type="matrix" values="0 0 0 0 0 0 0 0 0 0 0 0 0 0 0 0 0 0 127 0" result="hardAlpha"/>
<feOffset dy="4"/>
<feGaussianBlur stdDeviation="2"/>
<feComposite in2="hardAlpha" operator="out"/>
<feColorMatrix type="matrix" values="0 0 0 0 0 0 0 0 0 0 0 0 0 0 0 0 0 0 0.25 0"/>
<feBlend mode="normal" in2="BackgroundImageFix" result="effect1_dropShadow_1_100"/>
<feBlend mode="normal" in="SourceGraphic" in2="effect1_dropShadow_1_100" result="shape"/>
</filter>
</defs>
</svg>
